<?xml version="1.0" encoding="utf-8"?>
<!-- Generator: Adobe Illustrator 26.0.3, SVG Export Plug-In . SVG Version: 6.00 Build 0)  -->
<svg version="1.1" id="Laag_2" xmlns="http://www.w3.org/2000/svg" xmlns:xlink="http://www.w3.org/1999/xlink" x="0px" y="0px"
	 viewBox="0 0 425.2 425.2" style="enable-background:new 0 0 425.2 425.2;" xml:space="preserve">
<style type="text/css">
	.st0{fill:#44C8F5;}
</style>
<g>
	<path class="st0" d="M345.6,111.6L233.7,47c-13-7.5-29.1-7.5-42.1,0L79.6,111.6c-13,7.5-21.1,21.4-21.1,36.5v129.2
		c0,15.1,8,29,21.1,36.5l111.9,64.6c13,7.5,29.1,7.5,42.1,0l111.9-64.6c13-7.5,21.1-21.4,21.1-36.5V148.1
		C366.7,133,358.6,119.1,345.6,111.6z M249.7,119.6l24.9,25.2h-49.8L249.7,119.6z M274.6,147.8L249.7,173l-24.9-25.2H274.6z
		 M274.6,202.4h-49.8l24.9-25.2L274.6,202.4z M222.7,149.9l24.9,25.2l-24.9,25.2V149.9z M198,170.9l21.8-21.1v50.5L198,179.3
		C195.7,177,195.7,173.2,198,170.9z M200.4,220h-49.8l24.9-25.2L200.4,220z M200.4,223l-24.9,25.2L150.6,223H200.4z M126.3,196
		c0.5-1.1,1.4-1.7,2.6-1.7h43L147,219.4l-20.1-20.3C126,198.2,125.8,197.1,126.3,196z M128.9,306.3c-1.2,0-2.2-0.7-2.6-1.7
		c-0.5-1.1-0.2-2.2,0.6-3.1l0,0l20.1-20.3l24.9,25.2H128.9z M175.5,305.7l-24.9-25.2h49.8L175.5,305.7z M150.6,277.6l24.9-25.2
		l24.9,25.2H150.6z M202.5,275.4l-24.9-25.2l24.9-25.2V275.4z M227.2,254.5l-21.8,21.1V225l21.7,21.1
		C229.5,248.4,229.5,252.2,227.2,254.5z M224.8,205.3h49.8l-24.9,25.2L224.8,205.3z M298.9,229.4c-0.5,1.1-1.4,1.7-2.6,1.7h-43
		l24.9-25.2l20.1,20.3C299.2,227.1,299.4,228.3,298.9,229.4z M298.4,123.8l-20.1,20.3L253.3,119h43.1c1.2,0,2.2,0.7,2.6,1.7
		C299.4,121.9,299.2,123,298.4,123.8z"/>
</g>
</svg>
